<svg xmlns="http://www.w3.org/2000/svg" viewBox="0 0 640 360" role="img" aria-hidden="true">
  <rect width="640" height="360" fill="#0d1512"/>
  <g stroke="#1e2b28" stroke-width="1">
    <path d="M0 60h640M0 120h640M0 180h640M0 240h640M0 300h640M80 0v360M160 0v360M240 0v360M320 0v360M400 0v360M480 0v360M560 0v360"/>
  </g>
  <polyline points="60,220 140,200 200,230 260,120 320,190 380,90 450,160 520,140 580,150" fill="none" stroke="#00d97e" stroke-width="3" stroke-linecap="round" stroke-linejoin="round"/>
  <g fill="#00d97e">
    <circle cx="380" cy="90" r="7"/>
    <circle cx="260" cy="120" r="5" opacity=".7"/>
  </g>
  <circle cx="380" cy="90" r="16" fill="none" stroke="#00d97e" stroke-width="2" opacity=".4"/>
  <g stroke="#00d97e" stroke-width="2" opacity=".5" stroke-linecap="round">
    <path d="M60 260h30M110 260h60M190 260h40"/>
  </g>
  <text x="440" y="60" fill="#00d97e" font-family="monospace" font-size="17" opacity=".8">alert: p95 spike</text>
  <text x="320" y="320" fill="#00d97e" font-family="monospace" font-size="20" text-anchor="middle">$ tail -f /var/log/prod | grep -i anomaly</text>
</svg>
